<?xml version="1.0" encoding="utf-8"?>
<!-- Generator: Adobe Illustrator 26.2.1, SVG Export Plug-In . SVG Version: 6.00 Build 0)  -->
<svg version="1.1" id="Layer_1" xmlns="http://www.w3.org/2000/svg" xmlns:xlink="http://www.w3.org/1999/xlink" x="0px" y="0px"
	 viewBox="0 0 32 32" style="enable-background:new 0 0 32 32;" xml:space="preserve">
<g>
	<path d="M22.5,14.2c-2.1,0-2.4,2.1-2.4,2.1h4.4C24.6,16.3,24.6,14.2,22.5,14.2L22.5,14.2z M12.5,16.3H8.5v3.6h3.7
		c0.6,0,1.6-0.2,1.6-1.8C13.9,16.3,12.5,16.3,12.5,16.3L12.5,16.3z"/>
	<path d="M16.2-0.3C7.2-0.3,0,6.9,0,15.8S7.2,32,16.2,32s16.2-7.2,16.2-16.2S25.1-0.3,16.2-0.3z M19.6,9.6h5.6v1.7h-5.6V9.6z
		 M16.7,18.3c0,4.1-4.3,4-4.3,4h-7V8.8h7c2.1,0,3.8,1.2,3.8,3.6S14.2,15,14.2,15C16.9,15,16.7,18.3,16.7,18.3L16.7,18.3z M27.1,18.1
		h-7c0,2.5,2.4,2.3,2.4,2.3c2.2,0,2.2-1.4,2.2-1.4h2.4c0,3.9-4.6,3.6-4.6,3.6c-5.5,0-5.2-5.2-5.2-5.2s0-5.2,5.2-5.2
		C27.9,12.3,27.1,18.1,27.1,18.1L27.1,18.1z"/>
	<path d="M13.4,12.6c0-1.4-1-1.4-1-1.4H8.5v3h3.7C12.9,14.2,13.4,14,13.4,12.6z"/>
</g>
</svg>
