<?xml version="1.0" encoding="utf-8"?>
<!-- Generator: Adobe Illustrator 26.2.1, SVG Export Plug-In . SVG Version: 6.00 Build 0)  -->
<svg version="1.1" id="Layer_1" xmlns="http://www.w3.org/2000/svg" xmlns:xlink="http://www.w3.org/1999/xlink" x="0px" y="0px"
	 viewBox="0 0 32 32" style="enable-background:new 0 0 32 32;" xml:space="preserve">
<path d="M29.4,0H2.7C1.3,0,0,1,0,2.5v26.8C0,30.7,1.3,32,2.7,32h26.7c1.5,0,2.6-1.3,2.6-2.7V2.5C32,1,30.9,0,29.4,0z M9.9,26.7H5.3
	V12.4h4.6V26.7z M7.8,10.3L7.8,10.3c-1.5,0-2.4-1.1-2.4-2.5c0-1.4,1-2.5,2.5-2.5s2.4,1.1,2.5,2.5C10.3,9.2,9.3,10.3,7.8,10.3
	L7.8,10.3z M26.7,26.7h-4.6v-7.8c0-1.9-0.7-3.1-2.3-3.1c-1.3,0-2,0.9-2.4,1.7c-0.1,0.3-0.2,0.7-0.2,1.1v8.1h-4.6V12.4h4.6v2
	c0.7-0.9,1.7-2.3,4.1-2.3c3,0,5.3,2,5.3,6.3L26.7,26.7z"/>
</svg>
