<?xml version="1.0" encoding="utf-8"?>
<!-- Generator: Adobe Illustrator 26.2.1, SVG Export Plug-In . SVG Version: 6.00 Build 0)  -->
<svg version="1.1" id="Layer_1" xmlns="http://www.w3.org/2000/svg" xmlns:xlink="http://www.w3.org/1999/xlink" x="0px" y="0px"
	 viewBox="0 0 607.52 280.88" style="enable-background:new 0 0 607.52 280.88;" xml:space="preserve">
<g>
	<g>
		<path d="M54.54,418h-4.49l10.22-29.02h3.57L74.04,418h-4.51l-2.16-6.49H56.71L54.54,418z M66.14,407.61l-4.07-12.69H62
			l-4.07,12.69H66.14z"/>
	</g>
	<g>
		<path d="M45.28,443.96h-4.49l10.22-29.02h3.57l10.22,29.02h-4.51l-2.16-6.49H47.46L45.28,443.96z M56.89,433.57l-4.07-12.69h-0.08
			l-4.07,12.69H56.89z"/>
	</g>
</g>
<g>
	<g>
		<path d="M119.1,4.17h8.76l59.73,141.37h-10.75l-19.71-46.59h-67.5l-19.71,46.59H58.97L119.1,4.17z M154.35,90.59l-30.86-74.07
			L92.03,90.59H154.35z"/>
	</g>
	<g>
		<path d="M64.15,133.38h8.76l59.73,141.37h-10.75l-19.71-46.59h-67.5l-19.71,46.59H4.02L64.15,133.38z M99.39,219.79l-30.86-74.07
			l-31.46,74.07H99.39z"/>
	</g>
	<g>
		<path d="M213.79,72.34v51.44h-4.27V64.3h3.27l41.72,52.36V64.3h4.27v59.48h-3.94L213.79,72.34z"/>
		<path d="M278.55,72.34v51.44h-4.27V64.3h3.27l41.72,52.36V64.3h4.27v59.48h-3.94L278.55,72.34z"/>
		<path d="M378.65,119.92v3.85h-39.62V64.3h38.87v3.85h-34.6v23.37h30.24v3.69H343.3v24.71H378.65z"/>
		<path d="M390.3,123.78V64.3h4.27v55.63h35.52v3.85H390.3z"/>
		<path d="M438.97,123.78V64.3h4.27v59.48H438.97z"/>
		<path d="M493.42,74.18c-3.85-4.3-9.3-6.45-16.34-6.45c-5.81,0-10.04,1.1-12.69,3.31s-3.98,5.18-3.98,8.92
			c0,1.9,0.33,3.48,1.01,4.73c0.67,1.26,1.72,2.33,3.14,3.23c1.42,0.89,3.22,1.65,5.4,2.26c2.18,0.62,4.8,1.26,7.87,1.93
			c3.18,0.67,6.07,1.41,8.67,2.22c2.6,0.81,4.8,1.83,6.62,3.06c1.81,1.23,3.21,2.74,4.19,4.52c0.98,1.79,1.47,3.99,1.47,6.62
			c0,2.63-0.52,4.91-1.55,6.87c-1.03,1.95-2.48,3.59-4.36,4.9c-1.87,1.31-4.1,2.3-6.7,2.97c-2.6,0.67-5.49,1.01-8.67,1.01
			c-9.27,0-17.12-2.96-23.54-8.88l2.26-3.44c2.51,2.63,5.58,4.71,9.22,6.24c3.63,1.54,7.71,2.3,12.23,2.3
			c5.19,0,9.26-0.95,12.19-2.85c2.93-1.9,4.4-4.78,4.4-8.63c0-1.95-0.39-3.61-1.17-4.98c-0.78-1.37-1.94-2.55-3.48-3.56
			c-1.54-1-3.48-1.87-5.82-2.6c-2.35-0.73-5.08-1.42-8.21-2.09c-3.18-0.67-5.99-1.38-8.42-2.14c-2.43-0.75-4.47-1.7-6.12-2.85
			c-1.65-1.14-2.89-2.53-3.73-4.15c-0.84-1.62-1.26-3.66-1.26-6.12c0-2.68,0.51-5.05,1.55-7.12c1.03-2.07,2.47-3.81,4.32-5.24
			c1.84-1.42,4.05-2.5,6.62-3.22c2.57-0.73,5.42-1.09,8.54-1.09c3.85,0,7.29,0.57,10.3,1.72c3.02,1.15,5.75,2.89,8.21,5.24
			L493.42,74.18z"/>
		<path d="M549.13,119.92v3.85h-39.63V64.3h38.87v3.85h-34.6v23.37h30.24v3.69h-30.24v24.71H549.13z"/>
	</g>
	<g>
		<path d="M201.02,251.32v-51.44l-23.46,40.13h-2.68l-23.46-40.13v51.44h-4.27v-59.48h4.27l24.8,42.56l24.8-42.56h4.27v59.48H201.02
			z"/>
		<path d="M264.69,235.9c0,2.18-0.42,4.2-1.26,6.07c-0.84,1.87-1.98,3.51-3.43,4.9c-1.45,1.4-3.16,2.49-5.11,3.27
			c-1.96,0.78-4.02,1.17-6.2,1.17h-27.81v-59.48h27.73c2.07,0,3.94,0.45,5.61,1.34c1.68,0.89,3.1,2.05,4.27,3.48
			c1.17,1.42,2.08,3.04,2.72,4.86c0.64,1.82,0.96,3.64,0.96,5.49c0,3.02-0.76,5.78-2.26,8.29c-1.51,2.51-3.6,4.36-6.28,5.53
			c3.41,1.01,6.1,2.89,8.08,5.66C263.69,229.24,264.69,232.39,264.69,235.9z M225.15,195.69v23.79h21.78c1.62,0,3.1-0.33,4.44-1
			c1.34-0.67,2.5-1.55,3.48-2.64c0.98-1.09,1.75-2.36,2.3-3.81c0.56-1.45,0.84-2.93,0.84-4.44c0-1.62-0.27-3.14-0.8-4.57
			c-0.53-1.42-1.26-2.68-2.18-3.77c-0.92-1.09-2.02-1.95-3.31-2.6c-1.29-0.64-2.71-0.96-4.27-0.96H225.15z M260.41,235.32
			c0-1.56-0.28-3.08-0.84-4.57c-0.56-1.48-1.34-2.79-2.35-3.94c-1.01-1.14-2.19-2.05-3.56-2.72c-1.37-0.67-2.84-1-4.4-1h-24.13
			v24.38h23.54c1.68,0,3.23-0.33,4.65-1.01c1.42-0.67,2.65-1.58,3.69-2.72c1.03-1.14,1.86-2.44,2.47-3.9
			C260.11,238.39,260.41,236.88,260.41,235.32z"/>
		<path d="M276.33,251.32v-59.48h24.71c2.51,0,4.83,0.53,6.95,1.59c2.12,1.06,3.95,2.47,5.49,4.23c1.54,1.76,2.74,3.74,3.6,5.95
			c0.87,2.21,1.3,4.43,1.3,6.66c0,2.18-0.33,4.29-1.01,6.32c-0.67,2.04-1.62,3.87-2.85,5.49c-1.23,1.62-2.71,2.96-4.44,4.02
			c-1.73,1.06-3.63,1.76-5.7,2.09l14.83,23.12h-4.94l-14.41-22.45H280.6v22.45H276.33z M280.6,224.93h20.86
			c1.9,0,3.63-0.42,5.19-1.26c1.56-0.84,2.9-1.94,4.02-3.31c1.12-1.37,1.97-2.93,2.55-4.69c0.59-1.76,0.88-3.56,0.88-5.4
			c0-1.9-0.35-3.73-1.05-5.49c-0.7-1.76-1.65-3.31-2.85-4.65c-1.2-1.34-2.6-2.42-4.19-3.22c-1.59-0.81-3.31-1.22-5.15-1.22H280.6
			V224.93z"/>
		<path d="M354.41,251.74c-4.13,0-7.9-0.87-11.31-2.6c-3.41-1.73-6.34-3.99-8.8-6.79c-2.46-2.79-4.35-6-5.7-9.63
			c-1.34-3.63-2.01-7.34-2.01-11.14c0-3.96,0.71-7.76,2.14-11.39c1.42-3.63,3.38-6.84,5.86-9.63c2.48-2.79,5.43-5.01,8.84-6.66
			c3.41-1.65,7.09-2.47,11.06-2.47c4.13,0,7.92,0.88,11.35,2.64c3.43,1.76,6.37,4.06,8.8,6.91c2.43,2.85,4.31,6.07,5.66,9.68
			c1.34,3.6,2.01,7.25,2.01,10.93c0,4.02-0.71,7.85-2.14,11.48c-1.42,3.63-3.38,6.83-5.86,9.59c-2.49,2.76-5.43,4.97-8.84,6.62
			C362.06,250.91,358.37,251.74,354.41,251.74z M330.86,221.58c0,3.41,0.57,6.69,1.72,9.84c1.14,3.16,2.76,5.95,4.86,8.38
			c2.09,2.43,4.59,4.37,7.5,5.82c2.9,1.45,6.09,2.18,9.55,2.18c3.57,0,6.8-0.75,9.68-2.26c2.88-1.51,5.33-3.5,7.37-5.99
			c2.04-2.48,3.62-5.29,4.73-8.42c1.12-3.13,1.68-6.31,1.68-9.55c0-3.41-0.59-6.69-1.76-9.84c-1.17-3.15-2.81-5.95-4.9-8.38
			c-2.09-2.43-4.57-4.37-7.41-5.82c-2.85-1.45-5.98-2.18-9.38-2.18c-3.57,0-6.81,0.75-9.72,2.26c-2.9,1.51-5.39,3.51-7.45,5.99
			c-2.07,2.49-3.66,5.29-4.78,8.42C331.42,215.16,330.86,218.34,330.86,221.58z"/>
		<path d="M428.38,201.72c-3.85-4.3-9.3-6.45-16.34-6.45c-5.81,0-10.04,1.1-12.69,3.31s-3.98,5.18-3.98,8.92
			c0,1.9,0.33,3.48,1.01,4.73c0.67,1.26,1.72,2.33,3.14,3.23c1.42,0.89,3.22,1.65,5.4,2.26c2.18,0.62,4.8,1.26,7.87,1.93
			c3.18,0.67,6.07,1.41,8.67,2.22c2.6,0.81,4.8,1.83,6.62,3.06c1.81,1.23,3.21,2.74,4.19,4.52c0.98,1.79,1.47,3.99,1.47,6.62
			c0,2.63-0.52,4.91-1.55,6.87c-1.03,1.95-2.48,3.59-4.36,4.9c-1.87,1.31-4.1,2.3-6.7,2.97c-2.6,0.67-5.49,1.01-8.67,1.01
			c-9.27,0-17.12-2.96-23.54-8.88l2.26-3.44c2.51,2.63,5.58,4.71,9.22,6.24c3.63,1.54,7.71,2.3,12.23,2.3
			c5.19,0,9.26-0.95,12.19-2.85c2.93-1.9,4.4-4.78,4.4-8.63c0-1.95-0.39-3.61-1.17-4.98c-0.78-1.37-1.94-2.55-3.48-3.56
			c-1.54-1-3.48-1.87-5.82-2.6c-2.35-0.73-5.08-1.42-8.21-2.09c-3.18-0.67-5.99-1.38-8.42-2.14c-2.43-0.75-4.47-1.7-6.12-2.85
			c-1.65-1.14-2.89-2.53-3.73-4.15c-0.84-1.62-1.26-3.66-1.26-6.12c0-2.68,0.51-5.05,1.55-7.12c1.03-2.07,2.47-3.81,4.32-5.24
			c1.84-1.42,4.05-2.5,6.62-3.22c2.57-0.73,5.42-1.09,8.54-1.09c3.85,0,7.29,0.57,10.3,1.72c3.02,1.15,5.75,2.89,8.21,5.24
			L428.38,201.72z"/>
		<path d="M484.09,247.46v3.85h-39.62v-59.48h38.87v3.85h-34.6v23.37h30.24v3.69h-30.24v24.71H484.09z"/>
		<path d="M537.28,195.69H515.5v55.63h-4.27v-55.63h-21.78v-3.85h47.83V195.69z"/>
		<path d="M588.05,195.69h-21.78v55.63h-4.27v-55.63h-21.78v-3.85h47.83V195.69z"/>
		<path d="M597.26,251.32v-59.48h4.27v59.48H597.26z"/>
	</g>
</g>
</svg>
