<?xml version="1.0" encoding="utf-8"?>
<!-- Generator: Adobe Illustrator 26.2.1, SVG Export Plug-In . SVG Version: 6.00 Build 0)  -->
<svg version="1.1" id="Layer_1" xmlns="http://www.w3.org/2000/svg" xmlns:xlink="http://www.w3.org/1999/xlink" x="0px" y="0px"
	 viewBox="0 0 150.11 69.4" style="enable-background:new 0 0 150.11 69.4;" xml:space="preserve">
<style type="text/css">
	.st0{fill:#FFFFFF;}
</style>
<g>
	<g>
		<path d="M54.54,206.52h-4.49l10.22-29.02h3.57l10.22,29.02h-4.51l-2.16-6.49H56.71L54.54,206.52z M66.14,196.13l-4.07-12.69H62
			l-4.07,12.69H66.14z"/>
	</g>
	<g>
		<path d="M45.28,232.48h-4.49l10.22-29.02h3.57l10.22,29.02h-4.51l-2.16-6.49H47.46L45.28,232.48z M56.89,222.09l-4.07-12.69h-0.08
			l-4.07,12.69H56.89z"/>
	</g>
</g>
<g>
	<g>
		<path class="st0" d="M29.77,2.04h2.11l14.4,34.08h-2.59l-4.75-11.23H22.66l-4.75,11.23h-2.64L29.77,2.04z M38.26,22.87L30.82,5.01
			l-7.58,17.86H38.26z"/>
	</g>
	<g>
		<path class="st0" d="M16.52,33.18h2.11l14.4,34.08h-2.59l-4.75-11.23H9.41L4.66,67.26H2.02L16.52,33.18z M25.01,54.02l-7.44-17.86
			L9.99,54.02H25.01z"/>
	</g>
	<g>
		<path class="st0" d="M52.59,18.47v12.4h-1.03V16.53h0.79l10.06,12.62V16.53h1.03v14.34h-0.95L52.59,18.47z"/>
		<path class="st0" d="M68.2,18.47v12.4h-1.03V16.53h0.79l10.06,12.62V16.53h1.03v14.34H78.1L68.2,18.47z"/>
		<path class="st0" d="M92.34,29.94v0.93h-9.55V16.53h9.37v0.93h-8.34v5.63h7.29v0.89h-7.29v5.96H92.34z"/>
		<path class="st0" d="M95.14,30.87V16.53h1.03v13.41h8.56v0.93H95.14z"/>
		<path class="st0" d="M106.88,30.87V16.53h1.03v14.34H106.88z"/>
		<path class="st0" d="M120,18.91c-0.93-1.04-2.24-1.55-3.94-1.55c-1.4,0-2.42,0.27-3.06,0.8c-0.64,0.53-0.96,1.25-0.96,2.15
			c0,0.46,0.08,0.84,0.24,1.14c0.16,0.3,0.41,0.56,0.76,0.78c0.34,0.22,0.78,0.4,1.3,0.55c0.53,0.15,1.16,0.3,1.9,0.46
			c0.77,0.16,1.46,0.34,2.09,0.54c0.63,0.2,1.16,0.44,1.6,0.74c0.44,0.3,0.77,0.66,1.01,1.09c0.24,0.43,0.35,0.96,0.35,1.6
			c0,0.63-0.12,1.18-0.37,1.66c-0.25,0.47-0.6,0.87-1.05,1.18c-0.45,0.32-0.99,0.56-1.62,0.72c-0.63,0.16-1.32,0.24-2.09,0.24
			c-2.24,0-4.13-0.71-5.68-2.14l0.55-0.83c0.61,0.63,1.35,1.13,2.22,1.5c0.88,0.37,1.86,0.56,2.95,0.56c1.25,0,2.23-0.23,2.94-0.69
			c0.71-0.46,1.06-1.15,1.06-2.08c0-0.47-0.09-0.87-0.28-1.2c-0.19-0.33-0.47-0.62-0.84-0.86c-0.37-0.24-0.84-0.45-1.4-0.63
			c-0.57-0.17-1.23-0.34-1.98-0.5c-0.77-0.16-1.44-0.33-2.03-0.51c-0.59-0.18-1.08-0.41-1.47-0.69c-0.4-0.28-0.7-0.61-0.9-1
			c-0.2-0.39-0.3-0.88-0.3-1.47c0-0.65,0.12-1.22,0.37-1.72c0.25-0.5,0.6-0.92,1.04-1.26c0.44-0.34,0.98-0.6,1.6-0.78
			c0.62-0.17,1.31-0.26,2.06-0.26c0.93,0,1.76,0.14,2.48,0.41c0.73,0.28,1.39,0.7,1.98,1.26L120,18.91z"/>
		<path class="st0" d="M133.43,29.94v0.93h-9.55V16.53h9.37v0.93h-8.34v5.63h7.29v0.89h-7.29v5.96H133.43z"/>
	</g>
	<g>
		<path class="st0" d="M49.51,61.62v-12.4l-5.65,9.67h-0.65l-5.65-9.67v12.4h-1.03V47.28h1.03l5.98,10.26l5.98-10.26h1.03v14.34
			H49.51z"/>
		<path class="st0" d="M64.86,57.9c0,0.53-0.1,1.01-0.3,1.46c-0.2,0.45-0.48,0.85-0.83,1.18c-0.35,0.34-0.76,0.6-1.23,0.79
			c-0.47,0.19-0.97,0.28-1.49,0.28h-6.7V47.28h6.68c0.5,0,0.95,0.11,1.35,0.32c0.4,0.22,0.75,0.49,1.03,0.84
			c0.28,0.34,0.5,0.73,0.66,1.17c0.15,0.44,0.23,0.88,0.23,1.32c0,0.73-0.18,1.39-0.55,2c-0.36,0.61-0.87,1.05-1.51,1.33
			c0.82,0.24,1.47,0.7,1.95,1.36C64.62,56.3,64.86,57.05,64.86,57.9z M55.33,48.21v5.74h5.25c0.39,0,0.75-0.08,1.07-0.24
			c0.32-0.16,0.6-0.37,0.84-0.64c0.24-0.26,0.42-0.57,0.56-0.92c0.13-0.35,0.2-0.71,0.2-1.07c0-0.39-0.06-0.76-0.19-1.1
			c-0.13-0.34-0.3-0.65-0.53-0.91c-0.22-0.26-0.49-0.47-0.8-0.63c-0.31-0.15-0.65-0.23-1.03-0.23H55.33z M63.83,57.76
			c0-0.38-0.07-0.74-0.2-1.1c-0.13-0.36-0.32-0.67-0.57-0.95c-0.24-0.28-0.53-0.49-0.86-0.66c-0.33-0.16-0.68-0.24-1.06-0.24h-5.82
			v5.88H61c0.4,0,0.78-0.08,1.12-0.24c0.34-0.16,0.64-0.38,0.89-0.66c0.25-0.28,0.45-0.59,0.6-0.94
			C63.76,58.5,63.83,58.14,63.83,57.76z"/>
		<path class="st0" d="M67.67,61.62V47.28h5.96c0.61,0,1.16,0.13,1.68,0.38c0.51,0.26,0.95,0.6,1.32,1.02
			c0.37,0.42,0.66,0.9,0.87,1.43c0.21,0.53,0.31,1.07,0.31,1.61c0,0.53-0.08,1.03-0.24,1.52c-0.16,0.49-0.39,0.93-0.69,1.32
			c-0.3,0.39-0.65,0.71-1.07,0.97c-0.42,0.26-0.88,0.42-1.37,0.5l3.57,5.57h-1.19l-3.47-5.41H68.7v5.41H67.67z M68.7,55.25h5.03
			c0.46,0,0.88-0.1,1.25-0.3c0.38-0.2,0.7-0.47,0.97-0.8c0.27-0.33,0.47-0.71,0.62-1.13c0.14-0.42,0.21-0.86,0.21-1.3
			c0-0.46-0.08-0.9-0.25-1.32c-0.17-0.42-0.4-0.8-0.69-1.12c-0.29-0.32-0.63-0.58-1.01-0.78s-0.8-0.29-1.24-0.29H68.7V55.25z"/>
		<path class="st0" d="M86.49,61.72c-1,0-1.91-0.21-2.73-0.63c-0.82-0.42-1.53-0.96-2.12-1.64c-0.59-0.67-1.05-1.45-1.37-2.32
			c-0.32-0.88-0.48-1.77-0.48-2.69c0-0.96,0.17-1.87,0.52-2.75c0.34-0.88,0.81-1.65,1.41-2.32c0.6-0.67,1.31-1.21,2.13-1.61
			c0.82-0.4,1.71-0.6,2.67-0.6c1,0,1.91,0.21,2.74,0.64c0.83,0.42,1.54,0.98,2.12,1.67c0.59,0.69,1.04,1.46,1.36,2.33
			c0.32,0.87,0.48,1.75,0.48,2.64c0,0.97-0.17,1.89-0.52,2.77c-0.34,0.88-0.81,1.65-1.41,2.31c-0.6,0.67-1.31,1.2-2.13,1.6
			C88.34,61.52,87.45,61.72,86.49,61.72z M80.82,54.45c0,0.82,0.14,1.61,0.41,2.37c0.28,0.76,0.67,1.43,1.17,2.02
			c0.5,0.59,1.11,1.05,1.81,1.4c0.7,0.35,1.47,0.53,2.3,0.53c0.86,0,1.64-0.18,2.33-0.55c0.69-0.36,1.29-0.84,1.78-1.44
			c0.49-0.6,0.87-1.28,1.14-2.03c0.27-0.75,0.4-1.52,0.4-2.3c0-0.82-0.14-1.61-0.42-2.37c-0.28-0.76-0.68-1.43-1.18-2.02
			c-0.5-0.59-1.1-1.05-1.79-1.4c-0.69-0.35-1.44-0.53-2.26-0.53c-0.86,0-1.64,0.18-2.34,0.55c-0.7,0.36-1.3,0.85-1.8,1.44
			c-0.5,0.6-0.88,1.28-1.15,2.03C80.95,52.9,80.82,53.67,80.82,54.45z"/>
		<path class="st0" d="M104.32,49.66c-0.93-1.04-2.24-1.55-3.94-1.55c-1.4,0-2.42,0.27-3.06,0.8c-0.64,0.53-0.96,1.25-0.96,2.15
			c0,0.46,0.08,0.84,0.24,1.14c0.16,0.3,0.41,0.56,0.76,0.78c0.34,0.22,0.78,0.4,1.3,0.55c0.53,0.15,1.16,0.3,1.9,0.46
			c0.77,0.16,1.46,0.34,2.09,0.54c0.63,0.2,1.16,0.44,1.6,0.74c0.44,0.3,0.77,0.66,1.01,1.09c0.24,0.43,0.35,0.96,0.35,1.6
			c0,0.63-0.12,1.18-0.37,1.66c-0.25,0.47-0.6,0.87-1.05,1.18c-0.45,0.32-0.99,0.56-1.62,0.72c-0.63,0.16-1.32,0.24-2.09,0.24
			c-2.24,0-4.13-0.71-5.68-2.14l0.55-0.83c0.61,0.63,1.35,1.13,2.22,1.5c0.88,0.37,1.86,0.56,2.95,0.56c1.25,0,2.23-0.23,2.94-0.69
			c0.71-0.46,1.06-1.15,1.06-2.08c0-0.47-0.09-0.87-0.28-1.2c-0.19-0.33-0.47-0.62-0.84-0.86c-0.37-0.24-0.84-0.45-1.4-0.63
			c-0.57-0.17-1.23-0.34-1.98-0.5c-0.77-0.16-1.44-0.33-2.03-0.51c-0.59-0.18-1.08-0.41-1.47-0.69c-0.4-0.28-0.7-0.61-0.9-1
			c-0.2-0.39-0.3-0.88-0.3-1.47c0-0.65,0.12-1.22,0.37-1.72c0.25-0.5,0.6-0.92,1.04-1.26c0.44-0.34,0.98-0.6,1.6-0.78
			c0.62-0.17,1.31-0.26,2.06-0.26c0.93,0,1.76,0.14,2.48,0.41c0.73,0.28,1.39,0.7,1.98,1.26L104.32,49.66z"/>
		<path class="st0" d="M117.75,60.69v0.93h-9.55V47.28h9.37v0.93h-8.34v5.63h7.29v0.89h-7.29v5.96H117.75z"/>
		<path class="st0" d="M130.58,48.21h-5.25v13.41h-1.03V48.21h-5.25v-0.93h11.53V48.21z"/>
		<path class="st0" d="M142.82,48.21h-5.25v13.41h-1.03V48.21h-5.25v-0.93h11.53V48.21z"/>
		<path class="st0" d="M145.04,61.62V47.28h1.03v14.34H145.04z"/>
	</g>
</g>
</svg>
